<?xml version="1.0" encoding="UTF-8"?>
<svg id="Layer_1" xmlns="http://www.w3.org/2000/svg" version="1.1" viewBox="0 0 200 61.23">
  <!-- Generator: Adobe Illustrator 29.6.1, SVG Export Plug-In . SVG Version: 2.1.1 Build 9)  -->
  <defs>
    <style>
      .st0 {
        fill: #fff;
      }
    </style>
  </defs>
  <polygon class="st0" points="29.8 29.73 38.9 16.11 41.69 11.94 36.27 11.94 33.49 11.94 32.54 11.94 25.31 23.5 18.03 11.94 8.53 11.94 20.3 29.94 8.18 48.08 17.24 48.08 24.74 36.12 32.35 48.08 33.49 48.08 36.41 48.08 41.82 48.08 38.9 43.61 29.8 29.73"/>
  <polygon class="st0" points="53.9 35.84 44.4 14.41 34.14 29.75 41.34 40.77 41.34 26.51 51.11 48.08 56.5 48.08 66.29 26.4 66.29 48.08 74.33 48.08 74.33 11.94 64.51 11.94 53.9 35.84"/>
  <polygon class="st0" points="86.93 33.31 103.82 33.31 103.82 26.13 86.93 26.13 86.93 19.33 105.19 19.33 105.19 11.94 78.75 11.94 78.75 48.08 105.24 48.08 105.24 40.7 86.93 40.7 86.93 33.31"/>
  <path class="st0" d="M123.66,11.94h-14.77v36.14h14.35c5.52,0,10.04-1.75,13.56-5.25,3.52-3.5,5.28-7.84,5.28-13.01s-1.71-9.36-5.12-12.77c-3.41-3.41-7.84-5.12-13.29-5.12ZM130.89,37.56c-1.97,2.02-4.43,3.03-7.39,3.03h-6.44v-21.16h6.17c3.06,0,5.59.99,7.6,2.98,2,1.99,3.01,4.49,3.01,7.52s-.99,5.6-2.96,7.62Z"/>
  <rect class="st0" x="145.66" y="11.94" width="8.18" height="36.14"/>
  <path class="st0" d="M179.11,11.94h-10.02l-12.77,36.14h8.39l2.06-6.23h14.19l2.06,6.23h8.81l-12.72-36.14ZM169.14,34.63l4.69-14.14,4.69,14.14h-9.39Z"/>
</svg>