<?xml version="1.0" encoding="UTF-8"?>
<svg id="Layer_1" xmlns="http://www.w3.org/2000/svg" version="1.1" viewBox="0 0 74.51 49.01">
  <!-- Generator: Adobe Illustrator 29.6.1, SVG Export Plug-In . SVG Version: 2.1.1 Build 9)  -->
  <defs>
    <style>
      .st0 {
        fill: #fff;
      }
    </style>
  </defs>
  <polygon class="st0" points="25.8 23.62 34.9 10 37.69 5.83 32.27 5.83 29.49 5.83 28.54 5.83 21.31 17.39 14.03 5.83 4.53 5.83 16.3 23.83 4.18 41.97 13.24 41.97 20.74 30.01 28.35 41.97 29.49 41.97 32.41 41.97 37.82 41.97 34.9 37.5 25.8 23.62"/>
  <polygon class="st0" points="49.9 29.73 40.4 8.3 30.14 23.64 37.34 34.66 37.34 20.4 47.11 41.97 52.5 41.97 62.29 20.29 62.29 41.97 70.33 41.97 70.33 5.83 60.51 5.83 49.9 29.73"/>
</svg>